<?xml version="1.0" encoding="UTF-8"?>
<!DOCTYPE svg PUBLIC "-//W3C//DTD SVG 1.1//EN" "http://www.w3.org/Graphics/SVG/1.1/DTD/svg11.dtd">
<svg xmlns="http://www.w3.org/2000/svg" version="1.1" width="335px" height="335px" style="shape-rendering:geometricPrecision; text-rendering:geometricPrecision; image-rendering:optimizeQuality; fill-rule:evenodd; clip-rule:evenodd" xmlns:xlink="http://www.w3.org/1999/xlink">
<g><path style="opacity:1" fill="#030205" d="M 127.5,98.5 C 127.157,100.225 126.157,100.725 124.5,100C 122.707,98.2201 121.04,96.3868 119.5,94.5C 118.017,97.5382 118.85,99.8715 122,101.5C 122.667,102.167 122.667,102.833 122,103.5C 119.833,101.536 117.499,101.202 115,102.5C 114.667,101.833 114.333,101.167 114,100.5C 113.784,102.384 113.117,104.051 112,105.5C 110.82,104.316 109.32,103.649 107.5,103.5C 101.742,104.758 96.0757,106.258 90.5,108C 86.5138,108.499 82.5138,108.666 78.5,108.5C 78.719,107.325 78.3857,106.325 77.5,105.5C 77.1667,105.833 76.8333,106.167 76.5,106.5C 77.9459,108.618 78.6126,110.951 78.5,113.5C 71.7292,96.1535 67.5625,78.1535 66,59.5C 71,65.8333 76.6667,71.5 83,76.5C 83.3333,68.5 83.6667,60.5 84,52.5C 88.0267,59.8822 93.0267,66.5489 99,72.5C 108.396,81.4015 117.896,90.0682 127.5,98.5 Z"/></g>
<g><path style="opacity:1" fill="#050507" d="M 127.5,98.5 C 133.39,102.938 139.057,107.605 144.5,112.5C 142.775,114.702 140.609,115.035 138,113.5C 134.661,115.044 131.161,115.71 127.5,115.5C 127.5,116.833 127.5,118.167 127.5,119.5C 120.159,119.334 112.826,119.5 105.5,120C 102.099,123.032 98.5988,123.198 95,120.5C 94.3131,122.568 94.4798,124.568 95.5,126.5C 94.6518,128.283 93.3185,128.783 91.5,128C 92.1667,127 92.8333,126 93.5,125C 92.1955,124.196 91.5288,123.029 91.5,121.5C 92.6511,119.675 93.3178,117.675 93.5,115.5C 91.5,115.833 89.5,116.167 87.5,116.5C 87.1489,118.869 86.9822,121.203 87,123.5C 87.7431,121.355 88.5765,121.189 89.5,123C 88.1324,125.568 88.4658,127.901 90.5,130C 90.3893,131.722 89.8893,131.888 89,130.5C 87.6246,128.624 86.458,126.624 85.5,124.5C 84.6143,125.325 84.281,126.325 84.5,127.5C 81.5422,123.309 79.5422,118.642 78.5,113.5C 78.6126,110.951 77.9459,108.618 76.5,106.5C 76.8333,106.167 77.1667,105.833 77.5,105.5C 78.3857,106.325 78.719,107.325 78.5,108.5C 82.5138,108.666 86.5138,108.499 90.5,108C 96.0757,106.258 101.742,104.758 107.5,103.5C 109.32,103.649 110.82,104.316 112,105.5C 113.117,104.051 113.784,102.384 114,100.5C 114.333,101.167 114.667,101.833 115,102.5C 117.499,101.202 119.833,101.536 122,103.5C 122.667,102.833 122.667,102.167 122,101.5C 118.85,99.8715 118.017,97.5382 119.5,94.5C 121.04,96.3868 122.707,98.2201 124.5,100C 126.157,100.725 127.157,100.225 127.5,98.5 Z"/></g>
<g><path style="opacity:1" fill="#0d0d12" d="M 264.5,118.5 C 263.048,119.302 261.382,119.802 259.5,120C 264.167,120.167 268.833,120.333 273.5,120.5C 278.551,120.493 283.217,119.827 287.5,118.5C 294.175,118.334 300.842,118.5 307.5,119C 299.556,121.153 291.556,122.986 283.5,124.5C 283.611,123.883 283.944,123.383 284.5,123C 274.833,122.333 265.167,122.333 255.5,123C 253.627,124.085 251.96,125.418 250.5,127C 254.374,129.122 253.874,130.289 249,130.5C 244.663,130.093 244.829,129.259 249.5,128C 247.578,123.185 244.244,121.352 239.5,122.5C 239.281,123.675 239.614,124.675 240.5,125.5C 242.071,124.691 243.738,124.357 245.5,124.5C 245.756,126.912 244.756,128.579 242.5,129.5C 245.048,131.219 244.715,132.552 241.5,133.5C 241.957,134.298 242.624,134.631 243.5,134.5C 239.572,136.592 236.406,139.592 234,143.5C 233.16,149.614 231.993,155.614 230.5,161.5C 229.001,160.322 228.001,158.655 227.5,156.5C 226.376,158.369 225.543,160.369 225,162.5C 224.308,161.975 223.808,161.308 223.5,160.5C 227.166,153.326 227.166,146.326 223.5,139.5C 220.482,139.665 217.482,139.498 214.5,139C 212.473,137.121 210.14,135.954 207.5,135.5C 207.5,138.167 207.5,140.833 207.5,143.5C 206.5,143.5 205.5,143.5 204.5,143.5C 204.34,141.801 204.506,140.134 205,138.5C 205.889,139.888 206.389,139.722 206.5,138C 204.811,134.739 203.811,131.239 203.5,127.5C 202.5,127.5 201.5,127.5 200.5,127.5C 200.307,131.013 200.974,134.346 202.5,137.5C 201.551,144.571 200.218,144.904 198.5,138.5C 197.05,139.655 196.05,141.155 195.5,143C 194.207,143.49 192.873,143.657 191.5,143.5C 190.298,128.859 196.632,119.026 210.5,114C 221.08,110.123 231.746,109.789 242.5,113C 245.621,113.726 248.287,115.226 250.5,117.5C 255.12,118.493 259.786,118.827 264.5,118.5 Z"/></g>
<g><path style="opacity:1" fill="#07060b" d="M 144.5,112.5 C 150.35,116.257 156.017,120.257 161.5,124.5C 159.216,125.887 156.716,126.887 154,127.5C 152.333,126.167 150.667,126.167 149,127.5C 148.5,127.333 148,127.167 147.5,127C 148.956,126.577 149.456,125.744 149,124.5C 147.308,122.755 145.475,122.422 143.5,123.5C 144.167,124.167 144.833,124.833 145.5,125.5C 144.05,126.85 143.383,128.516 143.5,130.5C 139.818,130.335 136.152,130.501 132.5,131C 125.459,133.461 118.292,135.294 111,136.5C 110.586,136.043 110.086,135.709 109.5,135.5C 107.807,137.027 105.973,138.36 104,139.5C 103.439,138.978 102.772,138.645 102,138.5C 99.9534,139.609 97.7867,140.276 95.5,140.5C 95.6137,144.211 96.6137,147.545 98.5,150.5C 92.5811,143.675 87.9145,136.008 84.5,127.5C 84.281,126.325 84.6143,125.325 85.5,124.5C 86.458,126.624 87.6246,128.624 89,130.5C 89.8893,131.888 90.3893,131.722 90.5,130C 88.4658,127.901 88.1324,125.568 89.5,123C 88.5765,121.189 87.7431,121.355 87,123.5C 86.9822,121.203 87.1489,118.869 87.5,116.5C 89.5,116.167 91.5,115.833 93.5,115.5C 93.3178,117.675 92.6511,119.675 91.5,121.5C 91.5288,123.029 92.1955,124.196 93.5,125C 92.8333,126 92.1667,127 91.5,128C 93.3185,128.783 94.6518,128.283 95.5,126.5C 94.4798,124.568 94.3131,122.568 95,120.5C 98.5988,123.198 102.099,123.032 105.5,120C 112.826,119.5 120.159,119.334 127.5,119.5C 127.5,118.167 127.5,116.833 127.5,115.5C 131.161,115.71 134.661,115.044 138,113.5C 140.609,115.035 142.775,114.702 144.5,112.5 Z"/></g>
<g><path style="opacity:1" fill="#0c0c1b" d="M 264.5,118.5 C 272.167,118.5 279.833,118.5 287.5,118.5C 283.217,119.827 278.551,120.493 273.5,120.5C 268.833,120.333 264.167,120.167 259.5,120C 261.382,119.802 263.048,119.302 264.5,118.5 Z"/></g>
<g><path style="opacity:1" fill="#0f0c18" d="M 283.5,124.5 C 283.167,124.5 282.833,124.5 282.5,124.5C 278.625,124.085 274.958,124.585 271.5,126C 272.448,126.483 273.448,126.649 274.5,126.5C 272.095,127.768 269.428,128.435 266.5,128.5C 261.318,128.443 261.318,127.776 266.5,126.5C 262.495,125.473 258.495,125.639 254.5,127C 256.5,127.667 258.5,128.333 260.5,129C 259.944,129.383 259.611,129.883 259.5,130.5C 254.262,132.143 248.929,133.476 243.5,134.5C 242.624,134.631 241.957,134.298 241.5,133.5C 244.715,132.552 245.048,131.219 242.5,129.5C 244.756,128.579 245.756,126.912 245.5,124.5C 243.738,124.357 242.071,124.691 240.5,125.5C 239.614,124.675 239.281,123.675 239.5,122.5C 244.244,121.352 247.578,123.185 249.5,128C 244.829,129.259 244.663,130.093 249,130.5C 253.874,130.289 254.374,129.122 250.5,127C 251.96,125.418 253.627,124.085 255.5,123C 265.167,122.333 274.833,122.333 284.5,123C 283.944,123.383 283.611,123.883 283.5,124.5 Z"/></g>
<g><path style="opacity:1" fill="#0e0d07" d="M 282.5,124.5 C 280.095,125.768 277.428,126.435 274.5,126.5C 273.448,126.649 272.448,126.483 271.5,126C 274.958,124.585 278.625,124.085 282.5,124.5 Z"/></g>
<g><path style="opacity:1" fill="#0a090e" d="M 161.5,124.5 C 171.149,128.905 179.649,134.905 187,142.5C 187.791,143.745 188.291,145.078 188.5,146.5C 188.415,148.929 187.415,150.929 185.5,152.5C 185.167,152 184.833,151.5 184.5,151C 185.707,149.7 186.374,148.2 186.5,146.5C 184.857,146.48 183.524,147.147 182.5,148.5C 181.808,147.975 181.308,147.308 181,146.5C 180.667,146.833 180.333,147.167 180,147.5C 180.111,149.483 180.611,151.483 181.5,153.5C 181.167,154.5 180.833,155.5 180.5,156.5C 178.833,155.5 177.5,154.167 176.5,152.5C 175.614,153.325 175.281,154.325 175.5,155.5C 172.289,155.012 169.456,155.679 167,157.5C 156.927,158.451 146.927,160.784 137,164.5C 136,163.833 135,163.167 134,162.5C 129.118,163.38 125.285,165.88 122.5,170C 120.981,169.669 119.648,169.836 118.5,170.5C 110.833,164.833 104.167,158.167 98.5,150.5C 96.6137,147.545 95.6137,144.211 95.5,140.5C 97.7867,140.276 99.9534,139.609 102,138.5C 102.772,138.645 103.439,138.978 104,139.5C 105.973,138.36 107.807,137.027 109.5,135.5C 110.086,135.709 110.586,136.043 111,136.5C 118.292,135.294 125.459,133.461 132.5,131C 136.152,130.501 139.818,130.335 143.5,130.5C 143.383,128.516 144.05,126.85 145.5,125.5C 144.833,124.833 144.167,124.167 143.5,123.5C 145.475,122.422 147.308,122.755 149,124.5C 149.456,125.744 148.956,126.577 147.5,127C 148,127.167 148.5,127.333 149,127.5C 150.667,126.167 152.333,126.167 154,127.5C 156.716,126.887 159.216,125.887 161.5,124.5 Z"/></g>
<g><path style="opacity:1" fill="#0d0e0e" d="M 266.5,128.5 C 264.401,129.612 262.067,130.279 259.5,130.5C 259.611,129.883 259.944,129.383 260.5,129C 258.5,128.333 256.5,127.667 254.5,127C 258.495,125.639 262.495,125.473 266.5,126.5C 261.318,127.776 261.318,128.443 266.5,128.5 Z"/></g>
<g><path style="opacity:1" fill="#09090d" d="M 230.5,161.5 C 225.901,174.407 218.901,185.741 209.5,195.5C 209.07,194.045 209.07,192.712 209.5,191.5C 206.719,192.907 203.886,194.24 201,195.5C 200.911,193.887 201.745,192.72 203.5,192C 200.085,191.734 198.085,193.4 197.5,197C 196.391,197.638 195.225,198.138 194,198.5C 189.645,196.92 185.145,195.92 180.5,195.5C 179.787,197.435 178.787,197.768 177.5,196.5C 180.094,192.728 182.927,189.061 186,185.5C 191.705,176.607 193.539,166.94 191.5,156.5C 189.5,157.5 187.5,158.5 185.5,159.5C 185.002,158.397 184.669,157.397 184.5,156.5C 182.833,157.5 181.167,158.5 179.5,159.5C 177.152,159.152 175.818,157.818 175.5,155.5C 175.281,154.325 175.614,153.325 176.5,152.5C 177.5,154.167 178.833,155.5 180.5,156.5C 180.833,155.5 181.167,154.5 181.5,153.5C 180.611,151.483 180.111,149.483 180,147.5C 180.333,147.167 180.667,146.833 181,146.5C 181.308,147.308 181.808,147.975 182.5,148.5C 183.524,147.147 184.857,146.48 186.5,146.5C 186.374,148.2 185.707,149.7 184.5,151C 184.833,151.5 185.167,152 185.5,152.5C 187.415,150.929 188.415,148.929 188.5,146.5C 189.315,147.429 190.148,148.429 191,149.5C 191.495,147.527 191.662,145.527 191.5,143.5C 192.873,143.657 194.207,143.49 195.5,143C 196.05,141.155 197.05,139.655 198.5,138.5C 200.218,144.904 201.551,144.571 202.5,137.5C 200.974,134.346 200.307,131.013 200.5,127.5C 201.5,127.5 202.5,127.5 203.5,127.5C 203.811,131.239 204.811,134.739 206.5,138C 206.389,139.722 205.889,139.888 205,138.5C 204.506,140.134 204.34,141.801 204.5,143.5C 205.5,143.5 206.5,143.5 207.5,143.5C 207.5,140.833 207.5,138.167 207.5,135.5C 210.14,135.954 212.473,137.121 214.5,139C 217.482,139.498 220.482,139.665 223.5,139.5C 227.166,146.326 227.166,153.326 223.5,160.5C 223.808,161.308 224.308,161.975 225,162.5C 225.543,160.369 226.376,158.369 227.5,156.5C 228.001,158.655 229.001,160.322 230.5,161.5 Z"/></g>
<g><path style="opacity:1" fill="#0e0d13" d="M 175.5,155.5 C 175.818,157.818 177.152,159.152 179.5,159.5C 181.167,158.5 182.833,157.5 184.5,156.5C 184.669,157.397 185.002,158.397 185.5,159.5C 187.5,158.5 189.5,157.5 191.5,156.5C 193.539,166.94 191.705,176.607 186,185.5C 182.927,189.061 180.094,192.728 177.5,196.5C 169.464,194.992 161.464,193.158 153.5,191C 148.82,189.327 144.486,187.16 140.5,184.5C 136.665,182.75 132.999,180.75 129.5,178.5C 125.264,176.555 121.597,173.888 118.5,170.5C 119.648,169.836 120.981,169.669 122.5,170C 125.285,165.88 129.118,163.38 134,162.5C 135,163.167 136,163.833 137,164.5C 146.927,160.784 156.927,158.451 167,157.5C 169.456,155.679 172.289,155.012 175.5,155.5 Z"/></g>
<g><path style="opacity:1" fill="#0a0b26" d="M 129.5,178.5 C 129.948,176.535 130.948,176.202 132.5,177.5C 131.675,178.386 130.675,178.719 129.5,178.5 Z"/></g>
<g><path style="opacity:1" fill="#050508" d="M 140.5,184.5 C 144.486,187.16 148.82,189.327 153.5,191C 161.464,193.158 169.464,194.992 177.5,196.5C 178.787,197.768 179.787,197.435 180.5,195.5C 185.145,195.92 189.645,196.92 194,198.5C 195.225,198.138 196.391,197.638 197.5,197C 198.085,193.4 200.085,191.734 203.5,192C 201.745,192.72 200.911,193.887 201,195.5C 203.886,194.24 206.719,192.907 209.5,191.5C 209.07,192.712 209.07,194.045 209.5,195.5C 206.437,200.072 202.77,204.239 198.5,208C 191.572,214.101 184.239,219.601 176.5,224.5C 174.248,223.667 172.081,223.667 170,224.5C 167.495,220.927 163.995,218.927 159.5,218.5C 159.5,217.5 159.5,216.5 159.5,215.5C 157.473,215.662 155.473,215.495 153.5,215C 151.007,212.94 148.174,211.44 145,210.5C 143.667,208.5 142.333,206.5 141,204.5C 139.56,205.148 138.06,205.481 136.5,205.5C 136.343,204.127 136.51,202.793 137,201.5C 141.898,202.479 144.065,200.313 143.5,195C 143.333,193.5 143.167,192 143,190.5C 143.151,194.373 141.984,197.706 139.5,200.5C 138.305,198.879 137.305,197.213 136.5,195.5C 138.474,192.518 140.474,189.518 142.5,186.5C 141.757,185.818 141.091,185.151 140.5,184.5 Z"/></g>
<g><path style="opacity:1" fill="#030204" d="M 176.5,224.5 C 157.055,238.51 139.221,254.51 123,272.5C 120.752,275.328 118.752,278.328 117,281.5C 115.021,257.711 118.354,234.711 127,212.5C 129.687,206.448 132.854,200.781 136.5,195.5C 137.305,197.213 138.305,198.879 139.5,200.5C 141.984,197.706 143.151,194.373 143,190.5C 143.167,192 143.333,193.5 143.5,195C 144.065,200.313 141.898,202.479 137,201.5C 136.51,202.793 136.343,204.127 136.5,205.5C 138.06,205.481 139.56,205.148 141,204.5C 142.333,206.5 143.667,208.5 145,210.5C 148.174,211.44 151.007,212.94 153.5,215C 155.473,215.495 157.473,215.662 159.5,215.5C 159.5,216.5 159.5,217.5 159.5,218.5C 163.995,218.927 167.495,220.927 170,224.5C 172.081,223.667 174.248,223.667 176.5,224.5 Z"/></g>
</svg>
