<?xml version="1.0" encoding="UTF-8"?>
<svg version="1.1" xmlns="http://www.w3.org/2000/svg" width="1051" height="230">
<path d="M0 0 C2.52314643 1.26157322 2.72136127 2.2351169 3.9375 4.75 C10.75104423 17.40661332 22.06029065 27.72949112 33.1171875 36.6171875 C35.96390972 38.97016928 38.67094072 41.42264603 41.375 43.9375 C46.69357052 48.8141048 52.28261135 53.24306707 58.06298828 57.55175781 C60.23674882 59.17700958 62.39705126 60.81947551 64.55859375 62.4609375 C71.68079799 67.8286563 78.69948702 73.0753679 86.5625 77.3125 C92.87454751 80.74263849 100.67269799 85.34539598 104 92 C104.14695312 91.01 104.29390625 90.02 104.4453125 89 C105.92933879 79.90818027 107.60672292 72.99909661 115.296875 67.296875 C120.57614139 63.91945613 125.95983941 61.62200705 132 60 C132.825 59.773125 133.65 59.54625 134.5 59.3125 C145.1516109 57.98104864 154.65954183 59.73537812 164 65 C164.33 65.33 164.66 65.66 165 66 C167.57801013 66.07665235 170.12949178 66.0906808 172.70703125 66.0625 C174.33447216 66.05394245 175.9619136 66.04548268 177.58935547 66.03710938 C178.87105621 66.02780396 178.87105621 66.02780396 180.1786499 66.01831055 C194.48293247 65.91886706 208.72453124 65.97245983 223 67 C222.67 67.66 222.34 68.32 222 69 C219.57981873 69.77632141 219.57981873 69.77632141 216.32202148 70.5246582 C215.10663193 70.80867996 213.89124237 71.09270172 212.63902283 71.3853302 C211.98483809 71.53424021 211.33065334 71.68315022 210.65664482 71.83657265 C208.6065433 72.30409949 206.55940236 72.78296223 204.51271057 73.2651825 C198.69157236 74.63467097 192.86601522 75.98476098 187.0378418 77.32397461 C183.47400977 78.14372474 179.91381545 78.97797822 176.35536385 79.82076073 C175.00403209 80.13768297 173.65138641 80.44906026 172.29742241 80.7545414 C163.76159967 82.68131452 156.4179004 84.67081246 150.0546875 90.90625 C148.61554087 93.76322256 148.41859107 96.32062355 148.125 99.5 C147.21631795 106.68752603 145.17719605 112.5217061 142 119 C141.56816406 119.90234375 141.13632812 120.8046875 140.69140625 121.734375 C130.64128147 141.43603604 114.24725305 156.62302347 96.578125 169.40234375 C85.87631722 177.1441364 75.73851352 185.62651099 65.6875 194.1875 C65.11298096 194.67436279 64.53846191 195.16122559 63.9465332 195.6628418 C61.07065599 198.12531948 58.34084997 200.64169517 55.70703125 203.36328125 C53 206 53 206 51 206 C50.73574219 206.59554687 50.47148437 207.19109375 50.19921875 207.8046875 C48.95498791 210.08239998 47.72083092 211.38697779 45.8125 213.125 C40.93689458 217.8472845 36.16592774 223.50221679 34 230 C33.34 230 32.68 230 32 230 C31.4919053 197.57965004 34.43265842 167.3484815 53.08203125 139.890625 C54.58557955 137.62458479 55.8696522 135.46403858 57 133 C56.14921875 132.75378906 55.2984375 132.50757813 54.421875 132.25390625 C50.70925755 130.89346082 47.54081419 129.08708933 44.25 126.9375 C43.63584229 126.53756836 43.02168457 126.13763672 42.38891602 125.72558594 C36.75975425 121.9762422 31.84434693 117.71880745 27 113 C25.93812617 112.01104598 24.87558778 111.0228052 23.8125 110.03515625 C16.11949088 102.76618007 10.13962737 95.24789139 5 86 C4.65630371 85.38286133 4.31260742 84.76572266 3.95849609 84.12988281 C-9.43627686 59.62832253 -14.9359312 33.54227718 -18 6 C-17.40832031 6.7425 -16.81664062 7.485 -16.20703125 8.25 C-14.38643869 10.51849055 -12.56446091 12.77810832 -10.6875 15 C-10.15511719 15.639375 -9.62273437 16.27875 -9.07421875 16.9375 C-6.35627968 19.64008348 -3.11896198 21.77217002 0 24 C0 16.08 0 8.16 0 0 Z " fill="#08080B" transform="translate(371,0)"/>
<path d="M0 0 C0.9909668 0.00012085 0.9909668 0.00012085 2.00195312 0.00024414 C3.97269863 -0.00190628 5.9434051 -0.02030374 7.9140625 -0.0390625 C27.67016384 -0.06917851 27.67016384 -0.06917851 35.828125 5.18554688 C36.65699219 5.70117188 37.48585938 6.21679688 38.33984375 6.74804688 C38.93410156 7.22242187 39.52835937 7.69679688 40.140625 8.18554688 C40.140625 8.84554687 40.140625 9.50554687 40.140625 10.18554688 C40.800625 10.18554688 41.460625 10.18554688 42.140625 10.18554688 C48.81947645 18.71560171 51.01743136 27.79090056 49.75 38.44335938 C47.9209688 46.67399979 43.3564316 54.19651979 36.328125 58.87304688 C30.05640145 62.84298323 23.80289744 63.4800677 16.58203125 63.38085938 C15.79287827 63.37802948 15.00372528 63.37519958 14.19065857 63.37228394 C11.69465328 63.36117745 9.19902002 63.33609142 6.703125 63.31054688 C5.00065626 63.30050472 3.29818184 63.29138104 1.59570312 63.28320312 C-2.55613076 63.26126947 -6.70769002 63.22680664 -10.859375 63.18554688 C-10.88250237 55.11902514 -10.90029209 47.05251715 -10.91118717 38.9859705 C-10.91641514 35.2407165 -10.92351122 31.49548512 -10.93481445 27.75024414 C-10.94564641 24.13873 -10.95165249 20.52723767 -10.95425224 16.91570854 C-10.95610594 15.53494358 -10.95972549 14.15417987 -10.96510506 12.77342415 C-10.97231947 10.84578735 -10.97278309 8.91812881 -10.97290039 6.99047852 C-10.975121 5.89127579 -10.97734161 4.79207306 -10.97962952 3.65956116 C-10.70477759 -1.99500892 -4.44149665 0.02052026 0 0 Z M5.140625 15.18554688 C5.140625 26.40554687 5.140625 37.62554687 5.140625 49.18554688 C18.18859469 49.9188685 18.18859469 49.9188685 28.91796875 44.70898438 C32.25328444 41.27164726 34.06122212 38.12131542 34.3046875 33.29882812 C33.88213009 27.85588624 32.482919 22.96549414 28.328125 19.24804688 C20.32416377 14.06901314 15.28604933 15.18554688 5.140625 15.18554688 Z " fill="#000000" transform="translate(258.859375,103.814453125)"/>
<path d="M0 0 C34.87173913 0 34.87173913 0 41.47265625 4.796875 C44.99267053 9.12121686 47.10559851 12.19208194 47 18 C46.04122625 23.05535248 44.45433253 26.20023422 41 30 C41.48210938 30.37511719 41.96421875 30.75023437 42.4609375 31.13671875 C49.0262833 36.45598871 49.0262833 36.45598871 50 41 C50.61628118 47.26552533 49.77946407 51.85817098 46 57 C40.33570335 62.2008542 35.41085562 63.14854236 27.83203125 63.09765625 C27.12735718 63.09664917 26.42268311 63.09564209 25.69665527 63.09460449 C23.06858692 63.08937914 20.4405418 63.07541786 17.8125 63.0625 C11.934375 63.041875 6.05625 63.02125 0 63 C0 42.21 0 21.42 0 0 Z M16 13 C16 16.96 16 20.92 16 25 C23.22358742 25.64082804 23.22358742 25.64082804 29.75 23.3125 C31.2030854 21.06241161 31.2030854 21.06241161 31 18.4375 C29.78229408 15.46934183 28.73290871 14.63974522 26 13 C23.41118198 12.63965477 23.41118198 12.63965477 20.75 12.8125 C18.39875 12.9053125 18.39875 12.9053125 16 13 Z M16 37 C16 41.29 16 45.58 16 50 C18.0625 50.061875 20.125 50.12375 22.25 50.1875 C23.41015625 50.22230469 24.5703125 50.25710937 25.765625 50.29296875 C29.25565911 49.97684247 30.61763301 49.53307633 33 47 C33.59130938 42.43936483 33.59130938 42.43936483 31.921875 38.29296875 C28.95381292 36.29616276 26.33229692 36.71562486 22.8125 36.8125 C20.90404297 36.85310547 20.90404297 36.85310547 18.95703125 36.89453125 C17.98121094 36.92933594 17.00539063 36.96414062 16 37 Z " fill="#000000" transform="translate(620,104)"/>
<path d="M0 0 C34.5 0 34.5 0 42.5625 5.375 C48.06443244 11.30015801 49.37455861 16.49053301 49.28125 24.3984375 C48.685632 29.90790402 46.33440667 33.72913651 42.375 37.5 C40 39 40 39 38 39 C39.22705034 41.16789043 40.4560815 43.33459117 41.6875 45.5 C42.23180664 46.4576123 42.23180664 46.4576123 42.78710938 47.43457031 C44.78192481 50.92638313 46.82536639 54.36584395 49 57.75 C51 61 51 61 51 63 C34.90722193 64.36636795 34.90722193 64.36636795 30.64453125 61.3125 C29.10661254 58.93759068 28.04800236 56.625938 27 54 C26.05757337 52.34500689 25.09978137 50.69864529 24.125 49.0625 C22 45.27358491 22 45.27358491 22 43 C19.69 43 17.38 43 15 43 C15 49.6 15 56.2 15 63 C10.05 63 5.1 63 0 63 C0 42.21 0 21.42 0 0 Z M15 15 C15 19.95 15 24.9 15 30 C23.60826765 30.76095873 23.60826765 30.76095873 31.375 27.9375 C33.29245375 25.03083564 33.29245375 25.03083564 33 21.375 C31.90072845 17.46888484 31.90072845 17.46888484 29 15 C25.56919882 14.63601382 25.56919882 14.63601382 21.8125 14.8125 C18.4403125 14.9053125 18.4403125 14.9053125 15 15 Z " fill="#000000" transform="translate(113,104)"/>
<path d="M0 0 C35.69589041 0 35.69589041 0 44 7 C48.81217117 13.04606122 49.66968167 18.45988048 49 26 C47.69629392 32.1870797 45.19242734 35.46473032 40 39 C39.34 39 38.68 39 38 39 C39.41365999 41.54337973 40.83081587 44.0847049 42.25 46.625 C42.64574219 47.33785156 43.04148437 48.05070312 43.44921875 48.78515625 C45.29125964 52.07667194 47.15521848 55.29171354 49.296875 58.3984375 C51 61 51 61 51 63 C44.73 63 38.46 63 32 63 C30.32818524 60.04447033 28.66237821 57.08583038 27 54.125 C26.52304687 53.28324219 26.04609375 52.44148438 25.5546875 51.57421875 C25.10351562 50.76855469 24.65234375 49.96289062 24.1875 49.1328125 C23.76855469 48.38918457 23.34960938 47.64555664 22.91796875 46.87939453 C22 45 22 45 22 43 C19.69 43 17.38 43 15 43 C15 49.6 15 56.2 15 63 C10.05 63 5.1 63 0 63 C0 42.21 0 21.42 0 0 Z M15 15 C15 19.95 15 24.9 15 30 C23.60826765 30.76095873 23.60826765 30.76095873 31.375 27.9375 C33.29245375 25.03083564 33.29245375 25.03083564 33 21.375 C31.90072845 17.46888484 31.90072845 17.46888484 29 15 C25.56919882 14.63601382 25.56919882 14.63601382 21.8125 14.8125 C18.4403125 14.9053125 18.4403125 14.9053125 15 15 Z " fill="#000000" transform="translate(732,104)"/>
<path d="M0 0 C36.91769547 0 36.91769547 0 45 8 C48.92623151 14.32853489 50.16610052 20.8248266 48.52734375 28.09765625 C46.8909174 33.34009994 44.51685456 35.92469477 40 39 C39.34 39 38.68 39 38 39 C41.59690425 45.81171977 45.42283835 52.36302668 49.6796875 58.78515625 C51 61 51 61 51 63 C44.73 63 38.46 63 32 63 C30.32818524 60.04447033 28.66237821 57.08583038 27 54.125 C26.52304687 53.28324219 26.04609375 52.44148438 25.5546875 51.57421875 C25.10351562 50.76855469 24.65234375 49.96289062 24.1875 49.1328125 C23.76855469 48.38918457 23.34960938 47.64555664 22.91796875 46.87939453 C22 45 22 45 22 43 C19.69 43 17.38 43 15 43 C15 49.6 15 56.2 15 63 C10.05 63 5.1 63 0 63 C0 42.21 0 21.42 0 0 Z M15 15 C15 19.95 15 24.9 15 30 C17.0625 30.061875 19.125 30.12375 21.25 30.1875 C22.41015625 30.22230469 23.5703125 30.25710937 24.765625 30.29296875 C28.26012819 29.97643766 29.57035421 29.47603521 32 27 C33.19308162 23.34121638 33.32667744 21.70002308 31.6875 18.1875 C30.18421412 15.91084374 30.18421412 15.91084374 28 15 C23.66396021 14.8606671 19.33919329 14.95745889 15 15 Z " fill="#000000" transform="translate(906,104)"/>
<path d="M0 0 C6.80374317 7.23219047 8.64194203 15.8108518 8.52563477 25.49145508 C8.14997296 34.25238785 5.30740169 41.28401298 -0.94921875 47.3984375 C-10.35537264 54.38976099 -19.57335275 55.27950947 -30.94921875 54.3984375 C-38.91626543 52.65694955 -45.28484301 48.12068362 -50.26171875 41.70703125 C-55.33444703 33.66899489 -55.90272643 24.02556591 -54.26171875 14.8984375 C-52.15985497 6.46199115 -47.00936331 0.32746435 -39.94921875 -4.6015625 C-26.79593304 -11.45432395 -11.35589875 -9.33049797 0 0 Z M-36.76171875 12.3984375 C-40.50336661 17.52984028 -40.46789875 22.25111895 -39.94921875 28.3984375 C-38.1556804 33.67941154 -35.33922673 36.19739001 -30.94921875 39.3984375 C-25.40036312 41.24805604 -20.00768635 41.19741352 -14.63671875 38.7734375 C-9.92298938 36.13487584 -7.64099248 32.4737587 -5.94921875 27.3984375 C-5.4109028 21.0463093 -6.30774761 16.69619068 -9.94921875 11.3984375 C-14.86370839 6.72367906 -18.89263821 6.09220086 -25.44921875 6.1875 C-30.46462717 6.61067509 -33.53808161 8.71689736 -36.76171875 12.3984375 Z " fill="#000000" transform="translate(1042.94921875,112.6015625)"/>
<path d="M0 0 C6.33921669 5.93592657 8.86571257 13.20341071 9.6875 21.75 C9.81207034 31.54953321 7.12446093 39.89308346 0.46484375 47.1796875 C-8.09272904 54.74044412 -17.44261952 55.43721846 -28.36376953 54.92919922 C-35.78808692 54.24648198 -42.48293809 50.34147753 -47.3125 44.75 C-53.49064058 35.52290693 -54.29067671 26.63016667 -53.3125 15.75 C-51.75393483 8.55806677 -47.98102852 2.44767557 -42.3125 -2.25 C-28.38691914 -10.49460015 -12.71851789 -10.27806428 0 0 Z M-36.125 12.6875 C-39.54006328 17.46858859 -40.06503168 21.8993312 -39.3125 27.75 C-37.46245863 33.58555907 -34.79887596 36.83171491 -29.3125 39.75 C-24.11453613 41.48265462 -19.7717454 41.19519351 -14.625 39.625 C-9.93172098 36.96842697 -7.05661078 33.98233234 -5.3125 28.75 C-4.77827896 22.78110719 -4.77943278 17.81406302 -8.3125 12.75 C-12.52798984 8.5114747 -16.13238605 6.61046293 -22.125 6.5 C-28.19056902 6.58816234 -32.06412395 8.13055102 -36.125 12.6875 Z " fill="#000000" transform="translate(367.3125,112.25)"/>
<path d="M0 0 C5.94 0 11.88 0 18 0 C20.61517354 6.59757008 23.22947827 13.19548354 25.84301758 19.79370117 C26.73015516 22.03305099 27.6175201 24.27231075 28.50512695 26.51147461 C31.34335101 33.67172135 34.17557808 40.83429754 37 48 C37.30198303 48.76459534 37.60396606 49.52919067 37.9151001 50.31695557 C38.65162092 52.18507285 39.382768 54.05530658 40.11328125 55.92578125 C40.48880127 56.88524658 40.86432129 57.84471191 41.2512207 58.83325195 C42 61 42 61 42 63 C36.39 63 30.78 63 25 63 C23.68 60.03 22.36 57.06 21 54 C12.75 53.67 4.5 53.34 -4 53 C-4.33 54.65 -4.66 56.3 -5 58 C-5.99 60.475 -5.99 60.475 -7 63 C-12.61 63 -18.22 63 -24 63 C-21.89348031 55.65171453 -19.40298417 48.56281195 -16.62109375 41.4453125 C-16.20835709 40.38134247 -15.79562042 39.31737244 -15.37037659 38.22116089 C-14.50402176 35.99015967 -13.63582645 33.75987237 -12.76586914 31.53027344 C-11.43385237 28.11564931 -10.10808212 24.69864909 -8.78320312 21.28125 C-7.93786411 19.10662926 -7.09217339 16.93214519 -6.24609375 14.7578125 C-5.85022568 13.738013 -5.4543576 12.7182135 -5.04649353 11.66751099 C-4.67593338 10.71907318 -4.30537323 9.77063538 -3.92358398 8.79345703 C-3.59954086 7.96202179 -3.27549774 7.13058655 -2.94163513 6.2739563 C-2.05793568 4.13990896 -1.03296493 2.06592987 0 0 Z M8 19 C6.99422987 21.76886123 5.99519853 24.53984104 5 27.3125 C4.71382812 28.09818359 4.42765625 28.88386719 4.1328125 29.69335938 C3.86210938 30.45068359 3.59140625 31.20800781 3.3125 31.98828125 C3.06113281 32.68477783 2.80976562 33.38127441 2.55078125 34.09887695 C1.86086464 36.150368 1.86086464 36.150368 2 39 C6.62 39 11.24 39 16 39 C14.04068712 32.14240492 11.75665244 25.57678502 9 19 C8.67 19 8.34 19 8 19 Z " fill="#000000" transform="translate(66,104)"/>
<path d="M0 0 C15.51 0 31.02 0 47 0 C47 4.95 47 9.9 47 15 C36.77 15 26.54 15 16 15 C16 18.3 16 21.6 16 25 C23.59 25 31.18 25 39 25 C39 29.29 39 33.58 39 38 C31.41 38 23.82 38 16 38 C16 41.63 16 45.26 16 49 C26.23 49 36.46 49 47 49 C47 53.62 47 58.24 47 63 C31.49 63 15.98 63 0 63 C0 42.21 0 21.42 0 0 Z " fill="#000000" transform="translate(677,104)"/>
<path d="M0 0 C2.97 0 5.94 0 9 0 C9.495 4.95 9.495 4.95 10 10 C10.48210938 9.3503125 10.96421875 8.700625 11.4609375 8.03125 C12.09257813 7.1959375 12.72421875 6.360625 13.375 5.5 C14.00148438 4.6646875 14.62796875 3.829375 15.2734375 2.96875 C15.84320312 2.3190625 16.41296875 1.669375 17 1 C17.66 1 18.32 1 19 1 C19.21440231 1.55995163 19.42880463 2.11990326 19.64970398 2.69682312 C21.9049437 8.58674491 24.16032 14.47661438 26.41577148 20.36645508 C27.25467288 22.55719719 28.0935408 24.74795212 28.93237305 26.9387207 C29.74732142 29.06709986 30.56235336 31.19544701 31.37747192 33.32376099 C32.17091171 35.3959307 32.96394609 37.4682557 33.75656128 39.54074097 C35.39208732 43.81511069 37.02976527 48.08827592 38.69775391 52.35009766 C39.15456543 53.51976074 39.61137695 54.68942383 40.08203125 55.89453125 C40.46206299 56.8585083 40.84209473 57.82248535 41.23364258 58.81567383 C42 61 42 61 42 63 C36.39 63 30.78 63 25 63 C24.01 59.7 23.02 56.4 22 53 C9.625 53.495 9.625 53.495 -3 54 C-4.32 56.97 -5.64 59.94 -7 63 C-12.28 63 -17.56 63 -23 63 C-22.29271804 58.75630823 -21.69955111 55.80213505 -20.18994141 51.94775391 C-19.81930573 50.99301178 -19.44867004 50.03826965 -19.06680298 49.05459595 C-18.66577362 48.03884491 -18.26474426 47.02309387 -17.8515625 45.9765625 C-17.43836761 44.91641937 -17.02517273 43.85627625 -16.59945679 42.76400757 C-15.28006057 39.38218985 -13.95273507 36.00355137 -12.625 32.625 C-11.30623532 29.25289557 -9.98907351 25.88016797 -8.67196655 22.50741577 C-7.85303554 20.41217704 -7.03281002 18.31744366 -6.21109009 16.22329712 C-4.09623947 10.83127275 -2.01737145 5.42928009 0 0 Z M9 19 C7.8278551 21.95619219 6.66322524 24.91528789 5.5 27.875 C4.99919922 29.13763672 4.99919922 29.13763672 4.48828125 30.42578125 C4.17246094 31.23144531 3.85664062 32.03710938 3.53125 32.8671875 C3.23798828 33.61081543 2.94472656 34.35444336 2.64257812 35.12060547 C1.89216009 36.98437213 1.89216009 36.98437213 2 39 C6.95 39 11.9 39 17 39 C14.69 32.4 12.38 25.8 10 19 C9.67 19 9.34 19 9 19 Z " fill="#000000" transform="translate(855,104)"/>
<path d="M0 0 C33.56818182 0 33.56818182 0 42.0625 5.75 C46.95731746 10.64481746 48.16576135 15.18649284 48.4375 21.9375 C48.22773154 29.23379439 46.31986047 33.62741543 41.25 38.8125 C32.52130748 44.6875815 25.22095455 44.27377557 15 44 C15 50.27 15 56.54 15 63 C10.05 63 5.1 63 0 63 C0 42.21 0 21.42 0 0 Z M15 15 C15 19.95 15 24.9 15 30 C17.0625 30.0825 19.125 30.165 21.25 30.25 C22.41015625 30.29640625 23.5703125 30.3428125 24.765625 30.390625 C28.06079885 30.26647801 28.06079885 30.26647801 30.390625 28.203125 C32.7309759 24.99934366 32.55235041 22.86645287 32 19 C30.4601036 16.6676026 30.4601036 16.6676026 28 15 C24.72599522 14.51736211 24.72599522 14.51736211 21.25 14.75 C18.15625 14.87375 18.15625 14.87375 15 15 Z " fill="#000000" transform="translate(0,104)"/>
<path d="M0 0 C17.82 0 35.64 0 54 0 C54 4.95 54 9.9 54 15 C47.73 15 41.46 15 35 15 C35 30.84 35 46.68 35 63 C29.72 63 24.44 63 19 63 C19 47.16 19 31.32 19 15 C12.73 15 6.46 15 0 15 C0 10.05 0 5.1 0 0 Z " fill="#000000" transform="translate(787,104)"/>
<path d="M0 0 C17.49 0 34.98 0 53 0 C53 4.95 53 9.9 53 15 C46.73 15 40.46 15 34 15 C34 30.84 34 46.68 34 63 C29.05 63 24.1 63 19 63 C19 47.16 19 31.32 19 15 C12.73 15 6.46 15 0 15 C0 10.05 0 5.1 0 0 Z " fill="#000000" transform="translate(167,104)"/>
<path d="M0 0 C5.28 0 10.56 0 16 0 C16 15.84 16 31.68 16 48 C25.24 48 34.48 48 44 48 C44 52.95 44 57.9 44 63 C29.48 63 14.96 63 0 63 C0 42.21 0 21.42 0 0 Z " fill="#000000" transform="translate(544,104)"/>
<path d="M0 0 C5.61 0 11.22 0 17 0 C17 21.12 17 42.24 17 64 C11.39 64 5.78 64 0 64 C0 42.88 0 21.76 0 0 Z " fill="#000000" transform="translate(964,104)"/>
<path d="M0 0 C5.61 0 11.22 0 17 0 C17 21.12 17 42.24 17 64 C11.39 64 5.78 64 0 64 C0 42.88 0 21.76 0 0 Z " fill="#000000" transform="translate(226,104)"/>
<path d="M0 0 C5.28 0 10.56 0 16 0 C16 21.12 16 42.24 16 64 C10.72 64 5.44 64 0 64 C0 42.88 0 21.76 0 0 Z " fill="#000000" transform="translate(596,104)"/>
</svg>
